<svg id="Glyph" xmlns="http://www.w3.org/2000/svg" viewBox="0 0 64 64"><defs><style>.cls-1{fill:#010007;}</style></defs><title>1</title><path class="cls-1" d="M52.51923,39.48071A20.54007,20.54007,0,0,1,32,60C7.1849,59.35115,3.90262,24.54845,28.13308,19.33129l1.91223,2.45131A17.79156,17.79156,0,0,0,14.19625,39.48071c.9788,23.61709,34.63068,23.61373,35.60753-.00014a17.79157,17.79157,0,0,0-15.84909-17.698l1.91245-2.45127A20.43692,20.43692,0,0,1,52.51923,39.48071Z"/><path class="cls-1" d="M42.04831,9.63165c-1.56959,2.02463-7.43605,9.59057-8.89658,11.46419L36.13129,9.63165Z"/><polygon class="cls-1" points="42.122 8.575 36.681 8.575 39.259 4.423 42.122 8.575"/><polygon class="cls-1" points="38.287 4 35.719 8.1 33.183 4 38.287 4"/><polygon class="cls-1" points="34.779 8.575 29.327 8.575 32.211 4.433 34.779 8.575"/><polygon class="cls-1" points="35.043 9.632 32 21.339 28.999 9.632 35.043 9.632"/><polygon class="cls-1" points="31.229 4 28.334 8.152 25.713 4 31.229 4"/><polygon class="cls-1" points="27.351 8.575 21.878 8.575 24.741 4.433 27.351 8.575"/><path class="cls-1" d="M30.84827,21.10642c-1.4213-1.8426-7.35838-9.4879-8.89658-11.47477h5.94868Z"/></svg>